<?xml version="1.0" encoding="UTF-8" standalone="no"?>
<!-- Generator: Adobe Illustrator 16.0.0, SVG Export Plug-In . SVG Version: 6.00 Build 0)  -->

<svg
   xmlns:dc="http://purl.org/dc/elements/1.1/"
   xmlns:cc="http://creativecommons.org/ns#"
   xmlns:rdf="http://www.w3.org/1999/02/22-rdf-syntax-ns#"
   xmlns:svg="http://www.w3.org/2000/svg"
   xmlns="http://www.w3.org/2000/svg"
   xmlns:sodipodi="http://sodipodi.sourceforge.net/DTD/sodipodi-0.dtd"
   xmlns:inkscape="http://www.inkscape.org/namespaces/inkscape"
   version="1.1"
   id="Layer_1"
   x="0px"
   y="0px"
   width="254.3577"
   height="145.50337"
   viewBox="395.689 57.875 254.3577 145.50336"
   enable-background="new 395.689 57.875 606.16 557.762"
   xml:space="preserve"
   sodipodi:docname="balance.svg"
   inkscape:version="0.92.4 (5da689c313, 2019-01-14)"
   inkscape:export-filename="/home/dmoreau/git/dmo_notes/balance.png"
   inkscape:export-xdpi="300"
   inkscape:export-ydpi="300"><metadata
   id="metadata142"><rdf:RDF><cc:Work
       rdf:about=""><dc:format>image/svg+xml</dc:format><dc:type
         rdf:resource="http://purl.org/dc/dcmitype/StillImage" /><dc:title></dc:title></cc:Work></rdf:RDF></metadata><defs
   id="defs140" /><sodipodi:namedview
   pagecolor="#ffffff"
   bordercolor="#666666"
   borderopacity="1"
   objecttolerance="10"
   gridtolerance="10"
   guidetolerance="10"
   inkscape:pageopacity="0"
   inkscape:pageshadow="2"
   inkscape:window-width="1680"
   inkscape:window-height="986"
   id="namedview138"
   showgrid="false"
   inkscape:zoom="2.9690082"
   inkscape:cx="146.20397"
   inkscape:cy="148.9916"
   inkscape:window-x="0"
   inkscape:window-y="27"
   inkscape:window-maximized="1"
   inkscape:current-layer="Layer_1"
   inkscape:pagecheckerboard="false"
   fit-margin-top="0"
   fit-margin-left="0"
   fit-margin-right="0"
   fit-margin-bottom="0" />
<path
   d="m 613.56943,150.98659 v 0 l -2.97903,-0.002 -27.44384,-63.53273 c 0.1402,-0.0371 0.28487,-0.0527 0.41912,-0.10196 0.63135,-0.23896 1.16268,-0.61852 1.54369,-1.02261 0.42327,-0.44975 0.70159,-0.91018 0.91383,-1.36696 0.0804,-0.15287 0.12859,-0.32139 0.12859,-0.50061 0,-0.67982 -0.62718,-1.23183 -1.4035,-1.23183 -0.5855,0 -1.08438,0.31462 -1.29483,0.76253 -0.15628,0.2653 -0.32892,0.49721 -0.51347,0.6553 -0.36672,0.30209 -0.58552,0.34251 -1.04482,0.29505 -0.968,-0.12288 -2.32953,-0.99627 -3.44636,-1.93462 -1.09243,-0.90469 -2.3075,-2.18217 -3.69878,-3.24156 -1.34129,-1.10505 -2.89064,-2.05383 -4.51678,-2.90088 -1.64816,-0.82591 -3.4544,-1.44599 -5.30856,-1.85713 -3.74105,-0.80113 -7.58064,-0.57625 -10.94841,0.0493 -3.41035,0.60078 -6.46737,1.53365 -9.31662,2.37365 -2.84062,0.85748 -5.4568,1.66566 -7.8667,2.31027 -3.28026,0.9013 -6.16256,1.46008 -8.55668,1.78695 V 73.3117 c 1.86845,-0.60809 2.99362,-1.60408 3.35052,-2.96583 1.2103,-4.62261 -7.41424,-11.80514 -7.78126,-12.10904 l -0.44888,-0.36183 -0.44531,0.3673 c -0.36911,0.30392 -8.99217,7.48645 -7.78126,12.10905 0.3569,1.36174 1.48356,2.35775 3.35052,2.96583 v 8.21583 c -2.39412,-0.32687 -5.27731,-0.88565 -8.55906,-1.78695 -2.4099,-0.6467 -5.02668,-1.45305 -7.86551,-2.31053 -2.85103,-0.83974 -5.90805,-1.7726 -9.3187,-2.37366 -3.36778,-0.62373 -7.20736,-0.8486 -10.94812,-0.049 -1.85445,0.41113 -3.66099,1.02965 -5.31094,1.85712 -1.62376,0.8468 -3.1755,1.79375 -4.51469,2.90088 -1.39128,1.05939 -2.60636,2.33687 -3.697,3.24157 -1.11654,0.93835 -2.47777,1.80965 -3.44636,1.93434 -0.45901,0.0475 -0.67957,0.007 -1.04451,-0.29504 -0.18247,-0.15808 -0.3569,-0.38817 -0.51318,-0.6553 -0.21044,-0.44609 -0.70964,-0.76253 -1.29514,-0.76253 -0.77572,0 -1.40319,0.54993 -1.40319,1.23157 0,0.17922 0.0483,0.34618 0.12621,0.50062 0.21432,0.45677 0.49531,0.91721 0.91621,1.36695 0.38102,0.40409 0.91027,0.78182 1.5437,1.02261 0.13454,0.049 0.27891,0.0649 0.41702,0.10196 l -27.44591,63.52726 h -2.9832 l 0.002,0.002 h -0.002 c 0,3.96548 1.5178,13.2934 32.07491,13.2934 30.55532,0 32.07311,-9.32975 32.07311,-13.2934 v 0 h -2.98141 L 466.7869,87.28901 c 0.50513,-0.16513 0.96443,-0.37252 1.39337,-0.5833 0.86412,-0.4341 1.62793,-0.92766 2.3456,-1.44783 1.49755,-1.09644 2.57003,-2.11722 3.86518,-2.97992 1.2487,-0.91356 2.62035,-1.62861 3.99972,-2.25417 1.39724,-0.59896 2.85074,-1.00149 4.31823,-1.2441 2.94718,-0.45677 5.96849,-0.14582 8.88948,0.56401 2.92099,0.67827 5.75385,1.70765 8.47421,2.68305 2.72722,0.99261 5.35738,1.97139 7.86373,2.79522 2.50395,0.83112 4.88409,1.50392 7.04335,2.01182 1.25287,0.28462 2.41734,0.51131 3.49876,0.69575 v 67.12385 c -1.99942,0.14426 -3.57496,1.61818 -3.57496,3.40513 0,1.67453 1.34484,3.05192 3.16387,3.35244 v 7.21254 c 0,17.08304 -19.82657,27.9201 -28.19513,27.9201 -2.62837,0 -4.00359,1.71835 -4.00359,3.41738 0,1.69931 1.37522,3.4174 4.00359,3.4174 h 66.96602 c 2.62838,0 4.00151,-1.71991 4.00151,-3.4174 0,-1.70086 -1.37492,-3.41738 -4.00151,-3.41738 -8.37005,0 -28.19335,-10.83706 -28.19335,-27.9201 v -7.21254 c 1.81634,-0.29869 3.16566,-1.67791 3.16566,-3.35244 0,-1.78852 -1.57791,-3.26087 -3.57674,-3.40513 v -67.1241 c 1.08082,-0.18287 2.2453,-0.40931 3.49638,-0.69574 2.16105,-0.50609 4.54296,-1.1807 7.04454,-2.01183 2.50634,-0.82408 5.13889,-1.8026 7.86312,-2.79522 2.72244,-0.97513 5.55562,-2.00479 8.47661,-2.68304 2.9192,-0.70983 5.93991,-1.02078 8.88917,-0.564 1.46571,0.24078 2.92307,0.64305 4.31852,1.24409 1.37908,0.62556 2.75221,1.3406 3.99943,2.25417 1.29543,0.8627 2.36972,1.88531 3.86548,2.97992 0.71737,0.51835 1.48147,1.01374 2.3453,1.44782 0.43131,0.21078 0.88823,0.41817 1.39367,0.58331 l -27.51824,63.69786 h -2.98082 -0.003 c 0,3.96547 1.51958,13.2934 32.0752,13.2934 30.55324,0 32.07282,-9.32975 32.07282,-13.2934 z m -174.6663,-0.002 26.3112,-60.90421 26.31121,60.90604 z m 116.28851,0.002 26.30913,-60.90604 26.30735,60.90421 z"
   id="path131"
   inkscape:connector-curvature="0"
   style="fill:#24728e;fill-opacity:1;stroke-width:0.27866074" />




<rect
   style="fill:#24728e;fill-opacity:1;stroke:#ee0000;stroke-width:1;stroke-miterlimit:4;stroke-dasharray:none;stroke-opacity:1"
   id="rect2229"
   width="119.08131"
   height="21.434637"
   x="530.96539"
   y="126.79634" /><text
   xml:space="preserve"
   style="font-style:normal;font-weight:normal;font-size:13.33333302px;line-height:1.25;font-family:sans-serif;letter-spacing:0px;word-spacing:0px;fill:#fefefe;fill-opacity:1;stroke:none"
   x="539.41626"
   y="141.64214"
   id="text2165-2"><tspan
     sodipodi:role="line"
     id="tspan2163-6"
     x="539.41626"
     y="141.64214">The Thing Right </tspan></text>
<rect
   style="fill:#24728e;fill-opacity:1;stroke:none;stroke-width:5;stroke-miterlimit:4;stroke-dasharray:none;stroke-opacity:1"
   id="rect2229-5"
   width="119.08131"
   height="21.434637"
   x="395.689"
   y="127.03452" /><text
   xml:space="preserve"
   style="font-style:normal;font-weight:normal;font-size:13.33333302px;line-height:1.25;font-family:sans-serif;letter-spacing:0px;word-spacing:0px;fill:#fefefe;fill-opacity:1;stroke:none"
   x="404.13983"
   y="141.88029"
   id="text2165-2-9"><tspan
     sodipodi:role="line"
     id="tspan2163-6-5"
     x="404.13983"
     y="141.88029">The Right Thing </tspan></text>
</svg>